<svg width="150" height="150" viewBox="0 0 150 150" fill="none" xmlns="http://www.w3.org/2000/svg">
<rect width="150" height="150" rx="20" fill="#5B52BC"/>
<path d="M102.301 57.2682H96.2692C94.4597 57.2682 93.2533 58.4439 93.2533 60.2074V92.5383C93.2533 103.119 83.9042 111.349 72.7457 109.879C63.6982 108.704 57.0633 100.768 57.0633 91.6566V45.5115C57.0633 41.9845 60.3807 39.0453 63.9997 39.6331C67.0156 40.221 69.1267 42.8662 69.1267 45.8054V89.5991C69.1267 91.3627 70.333 92.5383 72.1425 92.5383H78.1742C79.9837 92.5383 81.19 91.3627 81.19 89.5991V45.5115C81.19 34.9304 71.8409 26.7008 60.6823 28.1703C51.6348 29.0521 45 37.2818 45 50.5081V91.6566C45 107.234 57.0633 121.048 73.0472 121.93C90.5391 123.106 105.317 109.292 105.317 92.5383V60.2074C105.317 58.4439 104.11 57.2682 102.301 57.2682Z" fill="#FF8675"/>
</svg>
