<svg width="356" height="160" viewBox="0 0 356 160" fill="none" xmlns="http://www.w3.org/2000/svg">
<rect width="356" height="159.909" fill="#5B52BC"/>
<path d="M81.2798 63.4H75.7767C74.1258 63.4 73.0251 64.5006 73.0251 66.1516V96.4189C73.0251 106.325 64.4953 114.029 54.3144 112.653C46.0597 111.552 40.0063 104.123 40.0063 95.5934V52.3937C40.0063 49.0918 43.033 46.3403 46.3349 46.8906C49.0865 47.4409 51.0126 49.9173 51.0126 52.6689V93.6673C51.0126 95.3182 52.1132 96.4189 53.7641 96.4189H59.2673C60.9182 96.4189 62.0188 95.3182 62.0188 93.6673V52.3937C62.0188 42.4881 53.489 34.7837 43.3082 36.1595C35.0535 36.9849 29 44.6893 29 57.0714V95.5934C29 110.177 40.0063 123.109 54.5896 123.935C70.5487 125.035 84.0314 112.103 84.0314 96.4189V66.1516C84.0314 64.5006 82.9308 63.4 81.2798 63.4Z" fill="#FF8675"/>
<path d="M114 36H111V124H114V36Z" fill="white"/>
<path d="M144.677 100.488C144.469 100.147 144.284 99.7968 144.124 99.4371C143.963 99.0773 143.806 98.7081 143.655 98.3294L129.085 60.1869C129.085 60.0922 129.071 60.007 129.043 59.9313C129.014 59.8555 129 59.7798 129 59.7041C129 59.1739 129.35 58.9088 130.051 58.9088H139.196C139.915 58.9088 140.408 59.2686 140.673 59.9881L149.335 85.833C150.111 83.6745 150.855 81.5208 151.565 79.3718C152.275 77.2228 152.975 75.069 153.666 72.9105C154.357 70.7521 155.058 68.5983 155.768 66.4493C156.478 64.3003 157.221 62.1465 157.997 59.9881C158.263 59.2686 158.783 58.9088 159.559 58.9088H168.506C168.941 58.9088 169.249 58.9893 169.429 59.1502C169.609 59.3112 169.699 59.5242 169.699 59.7893C169.699 59.9407 169.689 60.0449 169.67 60.1017V60.1869L155.015 98.3294C154.921 98.5945 154.807 98.888 154.675 99.2099C154.542 99.5318 154.391 99.83 154.22 100.105C154.05 100.379 153.851 100.611 153.624 100.8C153.396 100.99 153.141 101.084 152.857 101.084H145.842C145.255 101.084 144.867 100.886 144.677 100.488ZM180.974 80.0108C180.974 81.5823 181.239 83.0497 181.769 84.4129C182.299 85.7762 183.042 86.9643 183.999 87.9773C184.955 88.9902 186.086 89.7855 187.392 90.363C188.699 90.9404 190.138 91.2292 191.709 91.2292C193.281 91.2292 194.725 90.9404 196.041 90.363C197.357 89.7855 198.493 88.9902 199.449 87.9773C200.405 86.9643 201.148 85.7762 201.678 84.4129C202.208 83.0497 202.473 81.5823 202.473 80.0108C202.473 78.4582 202.208 76.9955 201.678 75.6228C201.148 74.2501 200.405 73.0525 199.449 72.0301C198.493 71.0077 197.357 70.203 196.041 69.616C194.725 69.0291 193.281 68.7356 191.709 68.7356C190.138 68.7356 188.699 69.0291 187.392 69.616C186.086 70.203 184.955 71.0077 183.999 72.0301C183.042 73.0525 182.299 74.2501 181.769 75.6228C181.239 76.9955 180.974 78.4582 180.974 80.0108ZM170.011 80.0392C170.011 78.0322 170.267 76.1057 170.778 74.2596C171.289 72.4135 172.018 70.6811 172.965 69.0622C173.911 67.4433 175.043 65.9712 176.359 64.6458C177.675 63.3205 179.137 62.1892 180.747 61.2519C182.356 60.3147 184.084 59.5857 185.93 59.065C187.776 58.5444 189.702 58.284 191.709 58.284C193.698 58.284 195.619 58.5444 197.475 59.065C199.33 59.5857 201.063 60.3147 202.672 61.2519C204.282 62.1892 205.749 63.3205 207.074 64.6458C208.4 65.9712 209.531 67.4433 210.468 69.0622C211.406 70.6811 212.135 72.4135 212.655 74.2596C213.176 76.1057 213.436 78.0322 213.436 80.0392C213.436 82.0462 213.176 83.9727 212.655 85.8188C212.135 87.6649 211.406 89.3879 210.468 90.9878C209.531 92.5877 208.4 94.0456 207.074 95.3615C205.749 96.6775 204.282 97.8088 202.672 98.7555C201.063 99.7022 199.33 100.431 197.475 100.942C195.619 101.454 193.698 101.709 191.709 101.709C189.702 101.709 187.776 101.454 185.93 100.942C184.084 100.431 182.356 99.7022 180.747 98.7555C179.137 97.8088 177.675 96.6775 176.359 95.3615C175.043 94.0456 173.911 92.5877 172.965 90.9878C172.018 89.3879 171.289 87.6649 170.778 85.8188C170.267 83.9727 170.011 82.0462 170.011 80.0392ZM223.945 87.4803C224.266 87.7453 224.678 88.1003 225.18 88.5453C225.682 88.9902 226.255 89.4305 226.898 89.8659C227.864 90.5097 228.82 91.0115 229.767 91.3712C230.714 91.7309 231.708 91.9108 232.749 91.9108C233.715 91.9108 234.524 91.8019 235.177 91.5842C235.83 91.3665 236.346 91.0777 236.725 90.718C237.104 90.3582 237.374 89.9417 237.535 89.4683C237.695 88.995 237.776 88.4932 237.776 87.9631C237.776 87.3761 237.553 86.8507 237.108 86.3868C236.664 85.9229 236.119 85.5111 235.475 85.1514C234.832 84.7916 234.16 84.4839 233.459 84.2283C232.758 83.9727 232.153 83.7597 231.641 83.5893C229.369 82.7941 227.381 81.9373 225.677 81.019C223.973 80.1007 222.553 79.0783 221.417 77.9517C220.281 76.8251 219.429 75.585 218.861 74.2312C218.293 72.8774 218.009 71.3674 218.009 69.7012C218.009 67.9404 218.364 66.3404 219.074 64.9014C219.784 63.4625 220.797 62.2318 222.113 61.2093C223.429 60.1869 225.014 59.3964 226.87 58.8378C228.725 58.2793 230.799 58 233.09 58C234.813 58 236.465 58.1941 238.046 58.5822C239.627 58.9704 241.184 59.5905 242.718 60.4425C243.361 60.8212 243.972 61.214 244.55 61.6211C245.127 62.0282 245.634 62.4211 246.069 62.7998C246.505 63.1785 246.85 63.5382 247.106 63.879C247.361 64.2198 247.489 64.5133 247.489 64.7594C247.489 65.0056 247.428 65.2328 247.304 65.4411C247.181 65.6493 246.997 65.886 246.751 66.1511L242.405 70.7805C242.083 71.1023 241.762 71.2633 241.44 71.2633C241.175 71.2633 240.933 71.1875 240.715 71.0361C240.498 70.8846 240.256 70.6953 239.991 70.468L239.736 70.2408C239.357 69.919 238.936 69.5876 238.472 69.2468C238.008 68.906 237.511 68.5983 236.981 68.3238C236.451 68.0492 235.892 67.822 235.305 67.6421C234.718 67.4623 234.122 67.3723 233.516 67.3723C232.891 67.3723 232.304 67.4244 231.755 67.5285C231.206 67.6327 230.723 67.7984 230.306 68.0256C229.89 68.2528 229.559 68.551 229.312 68.9202C229.066 69.2894 228.943 69.7391 228.943 70.2692C228.943 70.7994 229.076 71.2585 229.341 71.6467C229.606 72.0348 230.004 72.3946 230.534 72.7259C231.064 73.0573 231.722 73.3697 232.508 73.6632C233.293 73.9566 234.207 74.2738 235.248 74.6146C237.255 75.2773 239.106 75.9731 240.801 76.7021C242.495 77.431 243.958 78.2925 245.189 79.2866C246.419 80.2806 247.38 81.4687 248.071 82.8509C248.762 84.2331 249.108 85.9087 249.108 87.8779C249.108 89.9606 248.682 91.8493 247.83 93.5439C246.978 95.2385 245.809 96.6822 244.322 97.875C242.836 99.0679 241.089 99.9909 239.082 100.644C237.075 101.297 234.917 101.624 232.607 101.624C230.43 101.624 228.29 101.236 226.188 100.46C224.087 99.6832 222.127 98.6419 220.309 97.3354C219.552 96.7863 218.913 96.2467 218.392 95.7166C217.872 95.1864 217.46 94.7604 217.157 94.4385L217.072 94.3533C217.053 94.3154 217.034 94.2918 217.015 94.2823C216.996 94.2728 216.977 94.2586 216.958 94.2397C216.939 94.2018 216.92 94.1782 216.901 94.1687C216.882 94.1592 216.863 94.145 216.844 94.1261C216.409 93.6527 216.191 93.2741 216.191 92.9901C216.191 92.6682 216.409 92.3084 216.844 91.9108L221.758 87.2246C222.155 86.9406 222.477 86.7986 222.723 86.7986C222.894 86.7986 223.074 86.8554 223.263 86.969C223.452 87.0826 223.68 87.253 223.945 87.4803ZM255.896 60.2153C255.896 59.8177 256.005 59.5005 256.222 59.2638C256.44 59.0272 256.748 58.9088 257.145 58.9088H285.348C285.764 58.9088 286.086 59.0319 286.313 59.278C286.54 59.5242 286.654 59.8555 286.654 60.2721V67.3155C286.654 67.6374 286.54 67.9451 286.313 68.2386C286.086 68.532 285.755 68.6788 285.319 68.6788H266.915V75.6938H281.116C281.476 75.6938 281.774 75.779 282.011 75.9494C282.247 76.1199 282.366 76.4039 282.366 76.8015V82.9361C282.366 83.2012 282.261 83.4568 282.053 83.7029C281.845 83.9491 281.542 84.0721 281.144 84.0721H266.915V91.3144H286.001C286.853 91.3144 287.279 91.7499 287.279 92.6208V99.7779C287.279 99.9672 287.203 100.138 287.052 100.289C286.976 100.819 286.588 101.084 285.887 101.084H257.145C256.767 101.084 256.464 100.985 256.237 100.786C256.009 100.587 255.896 100.28 255.896 99.8631V60.2153ZM294.294 60.2153C294.294 59.8177 294.398 59.5005 294.606 59.2638C294.815 59.0272 295.127 58.9088 295.544 58.9088H313.891C315.841 58.9088 317.668 59.2733 319.372 60.0023C321.076 60.7312 322.562 61.7205 323.831 62.9702C325.1 64.2198 326.098 65.6825 326.827 67.3581C327.556 69.0338 327.921 70.8183 327.921 72.7117C327.921 73.9992 327.746 75.2252 327.395 76.3897C327.045 77.5541 326.557 78.6428 325.933 79.6558C325.308 80.6687 324.565 81.587 323.703 82.4107C322.842 83.2343 321.9 83.9396 320.877 84.5266L328.176 98.2726C328.309 98.5377 328.479 98.8501 328.688 99.2099C328.896 99.5696 329 99.882 329 100.147C329 100.45 328.901 100.682 328.702 100.843C328.503 101.004 328.233 101.084 327.892 101.084H318.151C317.829 101.084 317.54 100.99 317.285 100.8C317.029 100.611 316.863 100.355 316.788 100.034L309.886 87.0542H305.285V99.8631C305.285 100.677 304.85 101.084 303.979 101.084H295.544C295.165 101.084 294.862 100.985 294.635 100.786C294.408 100.587 294.294 100.28 294.294 99.8631V60.2153ZM316.532 72.8253C316.532 72.2573 316.428 71.6893 316.22 71.1213C316.011 70.5533 315.718 70.0326 315.339 69.5592C314.96 69.0859 314.506 68.6882 313.976 68.3664C313.446 68.0445 312.859 67.8362 312.215 67.7416C311.685 67.7037 311.188 67.6705 310.724 67.6421C310.26 67.6137 309.754 67.5995 309.204 67.5995H305.285V78.0227H310.511C310.852 78.0227 311.155 78.0133 311.42 77.9943C311.685 77.9754 311.978 77.947 312.3 77.9091C312.963 77.8334 313.559 77.6393 314.089 77.3269C314.62 77.0145 315.065 76.6263 315.424 76.1625C315.784 75.6986 316.059 75.1779 316.248 74.6004C316.437 74.0229 316.532 73.4312 316.532 72.8253Z" fill="white"/>
</svg>
